# xmcd
#
# Track frame offsets:
#	150
#	18705
#	45332
#	59668
#	76274
#	98342
#	115432
#	125336
#	143626
#	161860
#	175904
#	189994
#	214142
#	233439
#	250310
#	268216
#	283156
#	300590
#	317139
#	329030
#
# Disc length: 4681 seconds
#
# Revision: 1
# Processed by: cddbd v1.4PL0 Copyright (c) Steve Scherf et al.
# Submitted via: audiograbber 1.81.02
#
DISCID=22124714
DTITLE=Compilation - NOW No1 г апокутг суккоцг
DYEAR=2002
DGENRE=
TTITLE0=AMOR AMOR
TTITLE1=SODADE
TTITLE2=ежапан
TTITLE3=та дойаяиа сто цяасиди пеяилемоум та паидиа
TTITLE4=латиа дивыс коцийг
TTITLE5=тоу еяыта
TTITLE6=ма л'ацапас
TTITLE7=етси еимаи ои свесеис
TTITLE8=дем евы вяомо
TTITLE9=стг хакасса
TTITLE10=пиамы жытиа
TTITLE11=оса лоу'веис ваяисеи
TTITLE12=г еутувиа еимаи ауто
TTITLE13=памо апо та суммежа
TTITLE14=та коциа йоллатиа
TTITLE15=истояиа лоу
TTITLE16=цулмг апо ацапг
TTITLE17=ти соу'йама йаи пимеис
TTITLE18=йати цкуйо
TTITLE19=бухислемес ацйуяес
EXTD=
EXTT0=
EXTT1=
EXTT2=
EXTT3=
EXTT4=
EXTT5=
EXTT6=
EXTT7=
EXTT8=
EXTT9=
EXTT10=
EXTT11=
EXTT12=
EXTT13=
EXTT14=
EXTT15=
EXTT16=
EXTT17=
EXTT18=
EXTT19=
PLAYORDER=
